<svg xmlns="http://www.w3.org/2000/svg" viewBox="0 0 128 128">
  <defs>
    <linearGradient id="g" x1="18" y1="14" x2="110" y2="118" gradientUnits="userSpaceOnUse">
      <stop stop-color="#ff4aa6"/>
      <stop offset="1" stop-color="#ffc1df"/>
    </linearGradient>
    <filter id="s" x="-20%" y="-20%" width="140%" height="140%">
      <feDropShadow dx="0" dy="8" stdDeviation="8" flood-color="#ff4aa6" flood-opacity=".32"/>
    </filter>
  </defs>
  <rect width="128" height="128" rx="34" fill="#fff0f8"/>
  <g filter="url(#s)">
    <path d="M27 73c0-26 18-43 42-43 21 0 36 13 36 33 0 25-19 43-45 43-20 0-33-12-33-33Z" fill="url(#g)"/>
    <path d="M84 48c8-8 18-9 28-4-5 5-9 11-10 19-6-4-12-8-18-15Z" fill="#ff86c4"/>
    <circle cx="77" cy="56" r="5" fill="#3b1227"/>
    <circle cx="79" cy="54" r="1.6" fill="#fff"/>
    <path d="M96 65c8 1 14 4 18 9-7 3-14 3-21-1l3-8Z" fill="#ffb000"/>
    <path d="M43 87c12 9 31 9 45-1" fill="none" stroke="#fff" stroke-opacity=".75" stroke-width="6" stroke-linecap="round"/>
  </g>
</svg>
