<svg xmlns="http://www.w3.org/2000/svg" viewBox="0 0 24 24"><path fill="currentColor" d="M6.05 7.08a1.05 1.05 0 0 1 .25-1.16l2.6-2.45a1.1 1.1 0 0 1 1.5 1.6l-.56.53h5.31a5.15 5.15 0 0 1 5.15 5.15v.4a1.1 1.1 0 1 1-2.2 0v-.4a2.95 2.95 0 0 0-2.95-2.95H9.84l.56.53a1.1 1.1 0 0 1-1.5 1.6l-2.6-2.45a1.05 1.05 0 0 1-.25-.9ZM5.9 12.35v.4a2.95 2.95 0 0 0 2.95 2.95h5.31l-.56-.53a1.1 1.1 0 0 1 1.5-1.6l2.6 2.45c.23.22.36.52.36.8s-.13.58-.36.8l-2.6 2.45a1.1 1.1 0 1 1-1.5-1.6l.56-.53H8.85a5.15 5.15 0 0 1-5.15-5.15v-.4a1.1 1.1 0 1 1 2.2 0Z"/></svg>