<svg xmlns="http://www.w3.org/2000/svg" viewBox="0 0 24 24" fill="none"><path d="M10.3 3.4h3.4l.55 2.25c.55.2 1.05.5 1.52.88l2.22-.67 1.7 2.94-1.67 1.57c.05.31.08.63.08.96s-.03.65-.08.96l1.67 1.57-1.7 2.94-2.22-.67c-.47.38-.97.68-1.52.88l-.55 2.25h-3.4l-.55-2.25a5.9 5.9 0 0 1-1.52-.88l-2.22.67-1.7-2.94 1.67-1.57a5.9 5.9 0 0 1-.08-.96c0-.33.03-.65.08-.96L4.31 8.8l1.7-2.94 2.22.67c.47-.38.97-.68 1.52-.88l.55-2.25Z" stroke="currentColor" stroke-width="2.05" stroke-linejoin="round"/><circle cx="12" cy="11.33" r="2.7" stroke="currentColor" stroke-width="2.05"/></svg>