<?xml version="1.0" encoding="utf-8"?><!-- Uploaded to: SVG Repo, www.svgrepo.com, Generator: SVG Repo Mixer Tools -->
<svg width="800px" height="800px" viewBox="0 0 26 26" fill="none" xmlns="http://www.w3.org/2000/svg">
<circle cx="13" cy="13" r="4" stroke="#C4C4C4" stroke-width="0.13"/>
<path d="M1 1H25M1 1V25M1 1L25 25M25 1V25M25 1L1 25M25 25H1" stroke="#C4C4C4" stroke-width="0.13"/>
<circle cx="13" cy="13" r="10" stroke="#C4C4C4" stroke-width="0.13"/>
<rect x="3" y="5" width="20" height="16" rx="1" stroke="#C4C4C4" stroke-width="0.13"/>
<rect x="21" y="3" width="20" height="16" rx="1" transform="rotate(90 21 3)" stroke="#C4C4C4" stroke-width="0.13"/>
<rect x="22" y="4" width="18" height="18" rx="1" transform="rotate(90 22 4)" stroke="#C4C4C4" stroke-width="0.13"/>
<path d="M6 7C6 5.34315 7.34315 4 9 4H17C18.6569 4 20 5.34315 20 7V21.0568C20 21.8702 19.0806 22.3433 18.4188 21.8705L13.5812 18.4152C13.2335 18.1668 12.7665 18.1668 12.4188 18.4152L7.58124 21.8705C6.91937 22.3433 6 21.8702 6 21.0568V7Z" stroke="#000000" stroke-width="2"/>
</svg>