<svg xmlns="http://www.w3.org/2000/svg" viewBox="0 0 192 192" width="192" height="192" role="img" aria-label="Chirpy logo" style="color:#000000">
  <path fill="#77586a" fill-rule="evenodd" d="M 109 181.5 L 82 181.5 L 81 180.5 L 76 180.5 L 75 179.5 L 71 179.5 L 70 178.5 L 68 178.5 L 67 177.5 L 65 177.5 L 64 176.5 L 62 176.5 L 59 174.5 L 57 174.5 L 55 172.5 L 54 172.5 L 53 171.5 L 52 171.5 L 50 169.5 L 49 169.5 L 44.5 165 L 44.5 160 L 45.5 159 L 45.5 153 L 46.5 152 L 46.5 150 L 51 148.5 L 53.5 146 L 53.5 144 L 54.5 143 L 53.5 142 L 53.5 140 L 52.5 139 L 52.5 136 L 55.5 131 L 55.5 129 L 56.5 128 L 56.5 126 L 57.5 125 L 57.5 121 L 58.5 120 L 58.5 116 L 57.5 115 L 57.5 112 L 55.5 109 L 57 107.5 L 58 107.5 L 59 106.5 L 60 106.5 L 62.5 105 L 60.5 103 L 60.5 102 L 57.5 99 L 56.5 96 L 54.5 93 L 54.5 91 L 53.5 90 L 53.5 87 L 55 86.5 L 56.5 89 L 56.5 90 L 58.5 92 L 58.5 93 L 64 98.5 L 65 98.5 L 66.5 100 L 66.5 102 L 68 104.5 L 72 104.5 L 73.5 103 L 73.5 100 L 71 97.5 L 69 97.5 L 68 98.5 L 65 97.5 L 59.5 92 L 59.5 91 L 57.5 89 L 56.5 86 L 55.5 85 L 56.5 84 L 56.5 82 L 57.5 81 L 57.5 70 L 56.5 69 L 55.5 66 L 55 65.5 L 53.5 66 L 56.5 71 L 56.5 80 L 55.5 81 L 55.5 83 L 53 85.5 L 50 85.5 L 47.5 83 L 47.5 81 L 46.5 80 L 46.5 71 L 47.5 70 L 47.5 68 L 50 65.5 L 53 65.5 L 53.5 65 L 53.5 61 L 55.5 58 L 55.5 56 L 57.5 54 L 58.5 51 L 61.5 48 L 61.5 47 L 67 41.5 L 68 41.5 L 71 38.5 L 72 38.5 L 73 37.5 L 74 37.5 L 75 36.5 L 76 36.5 L 81 33.5 L 84 33.5 L 85 32.5 L 88 32.5 L 89 31.5 L 93 31.5 L 93.5 31 L 93.5 24 L 89.5 20 L 89.5 19 L 88.5 18 L 88.5 14 L 89.5 13 L 89.5 12 L 93 9.5 L 99 9.5 L 102.5 13 L 102.5 19 L 100.5 22 L 98.5 23 L 98.5 31 L 99 31.5 L 102 31.5 L 103 32.5 L 107 32.5 L 108 33.5 L 110 33.5 L 111 34.5 L 113 34.5 L 114 35.5 L 117 36.5 L 119 38.5 L 120 38.5 L 122 40.5 L 123 40.5 L 131.5 49 L 131.5 50 L 135.5 55 L 135.5 56 L 136.5 57 L 136.5 59 L 138.5 62 L 138.5 65 L 139.5 66 L 139.5 71 L 140.5 72 L 140.5 79 L 139.5 80 L 139.5 85 L 138.5 86 L 138.5 89 L 137.5 90 L 137.5 92 L 136.5 93 L 136.5 94 L 135.5 95 L 134.5 98 L 132.5 100 L 132.5 101 L 128.5 105 L 131 106.5 L 132 106.5 L 133 107.5 L 134 107.5 L 135.5 109 L 134.5 112 L 133.5 113 L 133.5 124 L 134.5 125 L 134.5 128 L 136.5 131 L 136.5 133 L 139.5 138 L 137.5 140 L 137.5 146 L 140 148.5 L 141 148.5 L 142 149.5 L 144 149.5 L 145.5 152 L 145.5 157 L 146.5 158 L 146.5 165 L 142 169.5 L 141 169.5 L 139 171.5 L 138 171.5 L 136 173.5 L 135 173.5 L 132 175.5 L 130 175.5 L 129 176.5 L 128 176.5 L 127 177.5 L 125 177.5 L 124 178.5 L 121 178.5 L 120 179.5 L 117 179.5 L 116 180.5 L 110 180.5 L 109 181.5 Z M 100.5 109 L 101 108.5 L 103 108.5 L 106 106.5 L 107 106.5 L 112.5 101 L 112.5 100 L 114.5 98 L 115 96.5 L 116 96.5 L 119 94.5 L 120 94.5 L 121.5 93 L 121.5 89 L 119.5 87 L 119.5 86 L 121 85.5 L 126.5 80 L 126.5 78 L 127.5 77 L 127.5 69 L 126.5 68 L 126.5 66 L 120 59.5 L 118 59.5 L 117 58.5 L 74 58.5 L 71 60.5 L 70 60.5 L 66.5 64 L 66.5 65 L 64.5 68 L 64.5 70 L 63.5 71 L 63.5 75 L 64.5 76 L 64.5 78 L 66.5 81 L 66.5 82 L 69 84.5 L 70 84.5 L 72.5 86 L 72 87.5 L 70.5 88 L 70.5 89 L 69.5 90 L 69.5 92 L 73 95.5 L 74 95.5 L 75 96.5 L 77 96.5 L 78.5 99 L 78.5 100 L 79.5 101 L 79.5 102 L 83 105.5 L 84 105.5 L 86 107.5 L 87 107.5 L 88 108.5 L 90 108.5 L 91 109.5 L 100 109.5 L 100.5 109 Z M 103.5 161 L 104 160.5 L 106 160.5 L 107 159.5 L 109 159.5 L 114 156.5 L 115 156.5 L 118 153.5 L 119 153.5 L 122.5 150 L 122.5 149 L 126.5 144 L 126.5 142 L 126 141.5 L 123 141.5 L 120 143.5 L 118 143.5 L 117 144.5 L 115 144.5 L 114 145.5 L 111 145.5 L 110 146.5 L 106 146.5 L 105 147.5 L 86 147.5 L 85 146.5 L 81 146.5 L 80 145.5 L 77 145.5 L 76 144.5 L 74 144.5 L 73 143.5 L 72 143.5 L 71 142.5 L 69 142.5 L 68 141.5 L 65 141.5 L 64.5 142 L 65.5 145 L 66.5 146 L 66.5 147 L 68.5 149 L 69 150.5 L 76 156.5 L 77 156.5 L 82 159.5 L 84 159.5 L 85 160.5 L 87 160.5 L 88 161.5 L 103 161.5 L 103.5 161 Z M 43 163.5 L 39.5 160 L 39.5 159 L 37.5 157 L 37.5 156 L 34.5 151 L 34.5 149 L 33.5 148 L 33.5 146 L 32.5 145 L 32.5 131 L 33.5 130 L 33.5 128 L 34.5 127 L 34.5 125 L 35.5 124 L 35.5 123 L 37.5 121 L 37.5 120 L 40.5 117 L 40.5 116 L 42 114.5 L 43 114.5 L 47 110.5 L 48 110.5 L 51 108.5 L 52 108.5 L 55.5 111 L 55.5 112 L 56.5 113 L 56.5 124 L 55.5 125 L 55.5 127 L 54.5 128 L 54.5 130 L 52.5 133 L 51.5 136 L 51 136.5 L 45 136.5 L 41.5 140 L 41.5 145 L 42.5 146 L 42.5 147 L 44 148.5 L 45.5 149 L 45.5 150 L 44.5 151 L 44.5 156 L 43.5 157 L 43.5 163 L 43 163.5 Z M 148 163.5 L 147.5 163 L 147.5 156 L 146.5 155 L 146.5 151 L 145.5 150 L 145.5 149 L 147 148.5 L 149.5 146 L 149.5 140 L 146 136.5 L 140 136.5 L 139.5 136 L 139.5 135 L 137.5 132 L 137.5 130 L 136.5 129 L 136.5 127 L 135.5 126 L 135.5 124 L 134.5 123 L 134.5 114 L 135.5 113 L 136.5 110 L 139 108.5 L 142 109.5 L 143 110.5 L 144 110.5 L 146 112.5 L 147 112.5 L 151.5 117 L 151.5 118 L 154.5 121 L 154.5 122 L 157.5 127 L 157.5 129 L 158.5 130 L 158.5 145 L 157.5 146 L 157.5 148 L 156.5 149 L 156.5 151 L 155.5 152 L 155.5 153 L 154.5 154 L 153.5 157 L 151.5 159 L 151.5 160 L 148 163.5 Z M 112 96.5 L 102 96.5 L 101 95.5 L 90 95.5 L 89 96.5 L 80 96.5 L 79 95.5 L 76 95.5 L 75 94.5 L 74 94.5 L 71.5 92 L 71.5 89 L 74 87.5 L 78 87.5 L 79 86.5 L 82 85.5 L 85 82.5 L 86 82.5 L 88 80.5 L 89 80.5 L 90 79.5 L 92 79.5 L 93 78.5 L 99 78.5 L 104 81.5 L 105 81.5 L 109 85.5 L 110 85.5 L 111 86.5 L 113 86.5 L 114 87.5 L 117 87.5 L 120.5 90 L 120.5 91 L 119 93.5 L 118 93.5 L 115 95.5 L 113 95.5 L 112 96.5 Z M 81 82.5 L 77 82.5 L 76 81.5 L 75 81.5 L 71.5 78 L 71.5 77 L 70.5 76 L 70.5 70 L 71.5 69 L 71.5 68 L 75 64.5 L 77 64.5 L 78 63.5 L 80 63.5 L 81 64.5 L 83 64.5 L 86.5 68 L 86.5 69 L 87.5 70 L 87.5 77 L 86.5 78 L 86.5 79 L 85 80.5 L 84 80.5 L 81 82.5 Z M 114 82.5 L 110 82.5 L 109 81.5 L 108 81.5 L 104.5 78 L 104.5 77 L 103.5 76 L 103.5 71 L 104.5 70 L 104.5 69 L 109 64.5 L 111 64.5 L 112 63.5 L 113 63.5 L 114 64.5 L 116 64.5 L 118 66.5 L 119 66.5 L 120.5 69 L 120.5 71 L 121.5 72 L 121.5 74 L 120.5 75 L 120.5 77 L 118.5 79 L 118.5 80 L 116 81.5 L 115 81.5 L 114 82.5 Z M 98 108.5 L 94 108.5 L 93 107.5 L 90 107.5 L 89 106.5 L 86 105.5 L 84 103.5 L 83 103.5 L 81.5 102 L 81.5 101 L 79.5 99 L 79.5 98 L 80 97.5 L 82 97.5 L 83 98.5 L 84 98.5 L 86 100.5 L 87 100.5 L 90 102.5 L 93 102.5 L 94 103.5 L 98 103.5 L 99 102.5 L 102 102.5 L 103 101.5 L 104 101.5 L 106 99.5 L 107 99.5 L 109 97.5 L 112 97.5 L 112.5 98 L 111.5 99 L 111.5 100 L 106 105.5 L 103 106.5 L 102 107.5 L 99 107.5 L 98 108.5 Z M 50 147.5 L 45 147.5 L 42.5 144 L 42.5 141 L 46 137.5 L 49 137.5 L 50 138.5 L 51 138.5 L 52.5 141 L 52.5 145 L 50 147.5 Z M 146 147.5 L 141 147.5 L 138.5 145 L 138.5 141 L 142 137.5 L 145 137.5 L 148.5 141 L 148.5 145 L 146 147.5 Z M 80.5 79 L 82 78.5 L 83.5 77 L 84.5 74 L 83 71.5 L 82 73.5 L 79 73.5 L 78.5 73 L 78.5 71 L 79.5 70 L 78 69.5 L 74.5 73 L 74.5 75 L 77 78.5 L 78 78.5 L 79 79.5 L 80.5 79 Z M 112.5 79 L 113 78.5 L 115 78.5 L 116.5 77 L 116.5 72 L 116 71.5 L 115.5 72 L 115 73.5 L 112 73.5 L 111.5 73 L 111.5 71 L 112.5 70 L 111 69.5 L 108.5 71 L 108.5 72 L 107.5 73 L 107.5 76 L 110 78.5 L 111 78.5 L 112 79.5 L 112.5 79 Z M 52.5 80 L 52.5 76 L 53.5 75 L 52.5 74 L 52.5 71 L 51 70.5 L 49.5 72 L 49.5 79 L 51 80.5 L 52.5 80 Z M 49.5 144 L 49.5 142 L 48 140.5 L 47 140.5 L 45.5 142 L 45.5 144 L 46 144.5 L 49 144.5 L 49.5 144 Z M 145.5 144 L 145.5 142 L 144 140.5 L 143 140.5 L 141.5 142 L 141.5 144 L 142 144.5 L 145 144.5 L 145.5 144 Z M 101.5 85 L 101 83.5 L 99.5 84 L 101 85.5 L 101.5 85 Z M 92.5 84 L 92 83.5 L 90.5 84 L 91 84.5 L 92.5 84 Z"/>
  <path fill="#ffffff00" fill-rule="evenodd" d="M 100 109.5 L 91 109.5 L 90 108.5 L 88 108.5 L 87 107.5 L 86 107.5 L 84 105.5 L 83 105.5 L 79.5 102 L 79.5 101 L 78.5 100 L 78.5 99 L 77.5 98 L 77.5 97 L 77 96.5 L 75 96.5 L 74 95.5 L 73 95.5 L 69.5 92 L 69.5 90 L 70.5 89 L 70.5 88 L 71 87.5 L 72 87.5 L 72.5 87 L 72.5 86 L 72 85.5 L 71 85.5 L 70 84.5 L 69 84.5 L 66.5 82 L 66.5 81 L 65.5 80 L 65.5 79 L 64.5 78 L 64.5 76 L 63.5 75 L 63.5 71 L 64.5 70 L 64.5 68 L 65.5 67 L 65.5 66 L 66.5 65 L 66.5 64 L 70 60.5 L 71 60.5 L 72 59.5 L 73 59.5 L 74 58.5 L 117 58.5 L 118 59.5 L 120 59.5 L 126.5 66 L 126.5 68 L 127.5 69 L 127.5 77 L 126.5 78 L 126.5 80 L 121 85.5 L 120 85.5 L 119.5 86 L 119.5 87 L 121.5 89 L 121.5 93 L 120 94.5 L 119 94.5 L 118 95.5 L 117 95.5 L 116 96.5 L 115 96.5 L 114.5 97 L 114.5 98 L 112.5 100 L 112.5 101 L 107 106.5 L 106 106.5 L 105 107.5 L 104 107.5 L 103 108.5 L 101 108.5 L 100 109.5 Z M 103 161.5 L 88 161.5 L 87 160.5 L 85 160.5 L 84 159.5 L 82 159.5 L 81 158.5 L 80 158.5 L 79 157.5 L 78 157.5 L 77 156.5 L 76 156.5 L 73 153.5 L 72 153.5 L 68.5 150 L 68.5 149 L 66.5 147 L 66.5 146 L 65.5 145 L 65.5 144 L 64.5 143 L 64.5 142 L 65 141.5 L 68 141.5 L 69 142.5 L 71 142.5 L 72 143.5 L 73 143.5 L 74 144.5 L 76 144.5 L 77 145.5 L 80 145.5 L 81 146.5 L 85 146.5 L 86 147.5 L 105 147.5 L 106 146.5 L 110 146.5 L 111 145.5 L 114 145.5 L 115 144.5 L 117 144.5 L 118 143.5 L 120 143.5 L 121 142.5 L 122 142.5 L 123 141.5 L 126 141.5 L 126.5 142 L 126.5 144 L 124.5 146 L 124.5 147 L 122.5 149 L 122.5 150 L 119 153.5 L 118 153.5 L 115 156.5 L 114 156.5 L 113 157.5 L 112 157.5 L 111 158.5 L 110 158.5 L 109 159.5 L 107 159.5 L 106 160.5 L 104 160.5 L 103 161.5 Z M 112.5 96 L 113 95.5 L 115 95.5 L 116 94.5 L 117 94.5 L 118 93.5 L 119 93.5 L 119.5 93 L 119.5 92 L 120.5 91 L 120.5 90 L 119 88.5 L 118 88.5 L 117 87.5 L 114 87.5 L 113 86.5 L 111 86.5 L 110 85.5 L 109 85.5 L 105 81.5 L 104 81.5 L 103 80.5 L 102 80.5 L 101 79.5 L 100 79.5 L 99 78.5 L 93 78.5 L 92 79.5 L 90 79.5 L 89 80.5 L 88 80.5 L 86 82.5 L 85 82.5 L 82 85.5 L 81 85.5 L 80 86.5 L 79 86.5 L 78 87.5 L 74 87.5 L 73 88.5 L 72 88.5 L 71.5 89 L 71.5 92 L 74 94.5 L 75 94.5 L 76 95.5 L 79 95.5 L 80 96.5 L 89 96.5 L 90 95.5 L 101 95.5 L 102 96.5 L 112 96.5 L 112.5 96 Z M 81.5 82 L 82 81.5 L 83 81.5 L 84 80.5 L 85 80.5 L 86.5 79 L 86.5 78 L 87.5 77 L 87.5 70 L 86.5 69 L 86.5 68 L 83 64.5 L 81 64.5 L 80 63.5 L 78 63.5 L 77 64.5 L 75 64.5 L 71.5 68 L 71.5 69 L 70.5 70 L 70.5 76 L 71.5 77 L 71.5 78 L 75 81.5 L 76 81.5 L 77 82.5 L 81 82.5 L 81.5 82 Z M 114.5 82 L 118.5 80 L 118.5 79 L 120.5 77 L 120.5 75 L 121.5 74 L 121.5 72 L 120.5 71 L 120.5 69 L 119.5 68 L 119.5 67 L 119 66.5 L 118 66.5 L 116 64.5 L 114 64.5 L 113 63.5 L 112 63.5 L 111 64.5 L 109 64.5 L 104.5 69 L 104.5 70 L 103.5 71 L 103.5 76 L 104.5 77 L 104.5 78 L 108 81.5 L 109 81.5 L 110 82.5 L 114 82.5 L 114.5 82 Z M 98.5 108 L 99 107.5 L 102 107.5 L 103 106.5 L 104 106.5 L 105 105.5 L 106 105.5 L 111.5 100 L 111.5 99 L 112.5 98 L 112 97.5 L 109 97.5 L 107 99.5 L 106 99.5 L 104 101.5 L 103 101.5 L 102 102.5 L 99 102.5 L 98 103.5 L 94 103.5 L 93 102.5 L 90 102.5 L 89 101.5 L 88 101.5 L 87 100.5 L 86 100.5 L 84 98.5 L 83 98.5 L 82 97.5 L 80 97.5 L 79.5 98 L 79.5 99 L 81.5 101 L 81.5 102 L 83 103.5 L 84 103.5 L 86 105.5 L 87 105.5 L 88 106.5 L 89 106.5 L 90 107.5 L 93 107.5 L 94 108.5 L 98 108.5 L 98.5 108 Z M 80 79.5 L 79 79.5 L 78 78.5 L 77 78.5 L 75.5 77 L 75.5 76 L 74.5 75 L 74.5 73 L 78 69.5 L 79 69.5 L 79.5 70 L 78.5 71 L 78.5 73 L 79 73.5 L 82 73.5 L 83 71.5 L 83.5 72 L 83.5 73 L 84.5 74 L 84.5 75 L 83.5 76 L 83.5 77 L 82 78.5 L 81 78.5 L 80 79.5 Z M 112 79.5 L 111 78.5 L 110 78.5 L 107.5 76 L 107.5 73 L 108.5 72 L 108.5 71 L 109 70.5 L 110 70.5 L 111 69.5 L 112 69.5 L 112.5 70 L 111.5 71 L 111.5 73 L 112 73.5 L 115 73.5 L 115.5 73 L 115.5 72 L 114.5 71 L 115 70.5 L 116.5 72 L 116.5 77 L 115 78.5 L 113 78.5 L 112 79.5 Z M 52 80.5 L 51 80.5 L 49.5 79 L 49.5 72 L 51 70.5 L 52 70.5 L 52.5 71 L 52.5 74 L 53.5 75 L 52.5 76 L 52.5 80 L 52 80.5 Z M 49 144.5 L 46 144.5 L 45.5 144 L 45.5 142 L 47 140.5 L 48 140.5 L 49.5 142 L 49.5 144 L 49 144.5 Z M 145 144.5 L 142 144.5 L 141.5 144 L 141.5 142 L 143 140.5 L 144 140.5 L 145.5 142 L 145.5 144 L 145 144.5 Z M 90 85.5 L 89.5 85 L 91 83.5 L 92 83.5 L 92.5 84 L 92 84.5 L 91 84.5 L 90 85.5 Z M 101 85.5 L 99.5 84 L 100 83.5 L 101 83.5 L 101.5 84 L 101.5 85 L 101 85.5 Z"/>
</svg>
