<svg xmlns="http://www.w3.org/2000/svg" viewBox="0 0 220 64">
  <g transform="translate(4 4)">
    <rect x="0" y="0" width="56" height="56" rx="14" fill="#fff1f7" stroke="#ffd2e6"/>
    <path d="M14 34c0-12 9-22 22-22 12 0 20 8 20 19 0 14-10 23-23 23H21c-4 0-7-3-7-7v-7c0-2 0-4 1-6z" fill="#ff4f9c"/>
    <path d="M12 24C7 22 4 18 3 13c6 0 11 1 15 6l-6 5z" fill="#ff9dcc"/>
    <circle cx="39" cy="24" r="3.5" fill="#3b1227"/>
    <path d="M48 29l11 4-11 5c1-3 1-6 0-9z" fill="#ffb04f"/>
  </g>
  <text x="74" y="42" font-family="Gilroy, Arial" font-size="34" font-weight="800" fill="#321024">Chirp</text>
</svg>
